<svg width="15" height="12" viewBox="0 0 15 12" fill="none" xmlns="http://www.w3.org/2000/svg">
<path d="M7.46255 10.6754C6.73416 10.7947 5.98839 10.7513 5.27873 10.5484C4.56906 10.3456 3.91308 9.98815 3.35781 9.50187C2.80255 9.01559 2.36175 8.41248 2.06704 7.73577C1.77232 7.05907 1.63098 6.32553 1.65315 5.58777C1.67533 4.85 1.86046 4.12628 2.19529 3.4685C2.53011 2.81071 3.00633 2.23516 3.5898 1.7831C4.17327 1.33104 4.84953 1.01369 5.5701 0.853779C6.29067 0.693873 7.03769 0.69538 7.75761 0.858192" stroke="white"/>
<path d="M14.3167 6.24955C14.512 6.05429 14.512 5.73771 14.3167 5.54244L11.1347 2.36046C10.9395 2.1652 10.6229 2.1652 10.4276 2.36046C10.2324 2.55572 10.2324 2.87231 10.4276 3.06757L13.256 5.896L10.4276 8.72442C10.2324 8.91969 10.2324 9.23627 10.4276 9.43153C10.6229 9.62679 10.9395 9.62679 11.1347 9.43153L14.3167 6.24955ZM6.67627 6.396L13.9631 6.396L13.9631 5.396L6.67627 5.396L6.67627 6.396Z" fill="white"/>
</svg>
