<svg width="235" height="53" viewBox="0 0 235 53" fill="none" xmlns="http://www.w3.org/2000/svg">
<path d="M50.5066 22.223H47.2529V15.4924C47.2529 8.81848 41.8487 3.39119 35.2033 3.39119C28.5578 3.39119 23.1537 8.81848 23.1537 15.4924V22.223H19.8999V15.4924C19.8936 7.01148 26.7585 0.117188 35.197 0.117188C43.6355 0.117188 50.5004 7.01148 50.5004 15.4924V22.223H50.5066Z" fill="white"/>
<path d="M24.8589 28.0026C24.8589 28.0026 32.0498 18.6654 45.535 19.3202C59.0203 19.975 66.7817 13.2256 66.7817 13.2256C66.7817 13.2256 69.8474 23.0791 59.6284 28.0026C49.4157 32.9262 30.9464 23.2553 24.8589 28.0026Z" fill="#EA1B25"/>
<path d="M33.0903 38.4226C33.0903 38.4226 33.1154 28.3487 50.2745 30.5587C62.9197 32.1894 66.2487 25.6414 66.2487 25.6414C66.2487 25.6414 65.9289 38.6555 62.5623 42.9054C56.2679 50.8512 38.1434 34.1223 33.0903 38.4226Z" fill="#EA1B25"/>
<path d="M1.08594 17.803C1.08594 17.803 16.8219 12.3694 33.6926 27.3921C47.5916 39.7703 53.4973 45.7328 62.5564 42.9058C62.5564 42.9058 59.0644 52.5263 42.8457 52.1045C24.4265 51.626 16.0382 18.4074 1.08594 17.803Z" fill="white"/>
<path d="M0.214355 24.5465C0.214355 24.5465 6.66546 23.7406 11.9003 28.5698C17.1289 33.3989 22.0127 47.6912 32.6517 49.9075C32.6517 49.9075 20.7965 53.1248 12.5962 48.4971C4.40225 43.8695 8.58387 26.1583 0.214355 24.5465Z" fill="white"/>
<path d="M87.0609 25.962C87.0609 27.498 87.4089 28.83 88.1049 29.958C88.8009 31.062 89.7129 31.902 90.8409 32.478C91.9929 33.054 93.2529 33.342 94.6209 33.342C95.8209 33.342 96.8769 33.186 97.7889 32.874C98.7009 32.562 99.5169 32.154 100.237 31.65C100.957 31.146 101.593 30.606 102.145 30.03V36.582C101.137 37.374 100.033 37.998 98.8329 38.454C97.6329 38.91 96.1089 39.138 94.2609 39.138C92.2449 39.138 90.3849 38.826 88.6809 38.202C86.9769 37.578 85.5129 36.678 84.2889 35.502C83.0649 34.326 82.1169 32.934 81.4449 31.326C80.7729 29.718 80.4369 27.93 80.4369 25.962C80.4369 23.994 80.7729 22.206 81.4449 20.598C82.1169 18.99 83.0649 17.598 84.2889 16.422C85.5129 15.246 86.9769 14.346 88.6809 13.722C90.3849 13.098 92.2449 12.786 94.2609 12.786C96.1089 12.786 97.6329 13.014 98.8329 13.47C100.033 13.926 101.137 14.55 102.145 15.342V21.894C101.593 21.318 100.957 20.778 100.237 20.274C99.5169 19.746 98.7009 19.338 97.7889 19.05C96.8769 18.738 95.8209 18.582 94.6209 18.582C93.2529 18.582 91.9929 18.87 90.8409 19.446C89.7129 20.022 88.8009 20.862 88.1049 21.966C87.4089 23.07 87.0609 24.402 87.0609 25.962ZM110.791 33.378C110.791 33.81 110.899 34.182 111.115 34.494C111.331 34.782 111.619 35.01 111.979 35.178C112.339 35.322 112.735 35.394 113.167 35.394C113.791 35.394 114.367 35.262 114.895 34.998C115.423 34.734 115.855 34.338 116.191 33.81C116.527 33.282 116.695 32.634 116.695 31.866L117.271 34.026C117.271 35.082 116.983 35.982 116.407 36.726C115.831 37.446 115.087 37.998 114.175 38.382C113.263 38.742 112.279 38.922 111.223 38.922C110.167 38.922 109.183 38.73 108.271 38.346C107.383 37.938 106.663 37.338 106.111 36.546C105.583 35.754 105.319 34.794 105.319 33.666C105.319 32.082 105.883 30.834 107.011 29.922C108.139 28.986 109.735 28.518 111.799 28.518C112.807 28.518 113.707 28.614 114.499 28.806C115.315 28.998 116.011 29.238 116.587 29.526C117.163 29.814 117.595 30.114 117.883 30.426V32.838C117.307 32.406 116.635 32.082 115.867 31.866C115.123 31.626 114.331 31.506 113.491 31.506C112.843 31.506 112.327 31.578 111.943 31.722C111.559 31.866 111.271 32.082 111.079 32.37C110.887 32.634 110.791 32.97 110.791 33.378ZM108.379 27.078L106.543 23.442C107.479 22.986 108.607 22.554 109.927 22.146C111.247 21.738 112.687 21.534 114.247 21.534C115.711 21.534 117.019 21.75 118.171 22.182C119.323 22.59 120.235 23.19 120.907 23.982C121.579 24.774 121.915 25.746 121.915 26.898V38.562H116.695V28.122C116.695 27.714 116.623 27.366 116.479 27.078C116.359 26.766 116.167 26.502 115.903 26.286C115.639 26.07 115.303 25.914 114.895 25.818C114.511 25.722 114.067 25.674 113.563 25.674C112.819 25.674 112.087 25.758 111.367 25.926C110.671 26.094 110.059 26.298 109.531 26.538C109.003 26.754 108.619 26.934 108.379 27.078ZM131.349 22.002V38.562H125.985V22.002H131.349ZM136.137 27.618C135.849 27.33 135.537 27.102 135.201 26.934C134.889 26.766 134.493 26.682 134.013 26.682C133.485 26.682 133.017 26.826 132.609 27.114C132.201 27.402 131.889 27.822 131.673 28.374C131.457 28.926 131.349 29.598 131.349 30.39L130.053 28.482C130.053 27.162 130.305 25.986 130.809 24.954C131.337 23.922 132.021 23.106 132.861 22.506C133.701 21.906 134.577 21.606 135.489 21.606C136.089 21.606 136.665 21.726 137.217 21.966C137.769 22.206 138.189 22.542 138.477 22.974L136.137 27.618ZM138.842 22.002H149.93V26.502H138.842V22.002ZM141.758 16.242H146.978V38.562H141.758V16.242ZM159.267 25.71L157.755 38.562H151.347L155.415 12.102L166.143 27.474L176.907 12.102L180.975 38.562H174.567L173.055 25.71L166.143 36.222L159.267 25.71ZM188.522 33.378C188.522 33.81 188.63 34.182 188.846 34.494C189.062 34.782 189.35 35.01 189.71 35.178C190.07 35.322 190.466 35.394 190.898 35.394C191.522 35.394 192.098 35.262 192.626 34.998C193.154 34.734 193.586 34.338 193.922 33.81C194.258 33.282 194.426 32.634 194.426 31.866L195.002 34.026C195.002 35.082 194.714 35.982 194.138 36.726C193.562 37.446 192.818 37.998 191.906 38.382C190.994 38.742 190.01 38.922 188.954 38.922C187.898 38.922 186.914 38.73 186.002 38.346C185.114 37.938 184.394 37.338 183.842 36.546C183.314 35.754 183.05 34.794 183.05 33.666C183.05 32.082 183.614 30.834 184.742 29.922C185.87 28.986 187.466 28.518 189.53 28.518C190.538 28.518 191.438 28.614 192.23 28.806C193.046 28.998 193.742 29.238 194.318 29.526C194.894 29.814 195.326 30.114 195.614 30.426V32.838C195.038 32.406 194.366 32.082 193.598 31.866C192.854 31.626 192.062 31.506 191.222 31.506C190.574 31.506 190.058 31.578 189.674 31.722C189.29 31.866 189.002 32.082 188.81 32.37C188.618 32.634 188.522 32.97 188.522 33.378ZM186.11 27.078L184.274 23.442C185.21 22.986 186.338 22.554 187.658 22.146C188.978 21.738 190.418 21.534 191.978 21.534C193.442 21.534 194.75 21.75 195.902 22.182C197.054 22.59 197.966 23.19 198.638 23.982C199.31 24.774 199.646 25.746 199.646 26.898V38.562H194.426V28.122C194.426 27.714 194.354 27.366 194.21 27.078C194.09 26.766 193.898 26.502 193.634 26.286C193.37 26.07 193.034 25.914 192.626 25.818C192.242 25.722 191.798 25.674 191.294 25.674C190.55 25.674 189.818 25.758 189.098 25.926C188.402 26.094 187.79 26.298 187.262 26.538C186.734 26.754 186.35 26.934 186.11 27.078ZM201.772 22.002H212.86V26.502H201.772V22.002ZM204.688 16.242H209.908V38.562H204.688V16.242ZM223.601 38.922C221.681 38.922 220.013 38.574 218.597 37.878C217.205 37.158 216.125 36.15 215.357 34.854C214.589 33.558 214.205 32.034 214.205 30.282C214.205 28.506 214.577 26.97 215.321 25.674C216.065 24.378 217.133 23.382 218.525 22.686C219.941 21.99 221.609 21.642 223.529 21.642C225.449 21.642 227.069 21.978 228.389 22.65C229.709 23.298 230.717 24.246 231.413 25.494C232.109 26.742 232.457 28.254 232.457 30.03C232.457 30.294 232.457 30.558 232.457 30.822C232.457 31.062 232.433 31.266 232.385 31.434H217.265V28.41H227.489L226.193 30.066C226.313 29.898 226.409 29.694 226.481 29.454C226.577 29.19 226.625 28.974 226.625 28.806C226.625 28.086 226.493 27.462 226.229 26.934C225.965 26.406 225.593 25.998 225.113 25.71C224.633 25.422 224.069 25.278 223.421 25.278C222.605 25.278 221.921 25.458 221.369 25.818C220.817 26.178 220.397 26.73 220.109 27.474C219.845 28.194 219.701 29.106 219.677 30.21C219.677 31.218 219.821 32.082 220.109 32.802C220.397 33.522 220.829 34.074 221.405 34.458C221.981 34.818 222.689 34.998 223.529 34.998C224.489 34.998 225.305 34.818 225.977 34.458C226.673 34.098 227.225 33.558 227.633 32.838L232.493 34.026C231.629 35.658 230.453 36.882 228.965 37.698C227.501 38.514 225.713 38.922 223.601 38.922Z" fill="#F2EEEE"/>
</svg>
