<svg width="81" height="81" viewBox="0 0 81 81" fill="none" xmlns="http://www.w3.org/2000/svg">
<circle cx="40.0137" cy="40.2456" r="40" fill="#00438B"/>
<path d="M59.416 43.7102C59.416 49.453 54.7646 54.1044 49.0219 54.1044H48.329C46.7958 54.1044 45.5572 52.8657 45.5572 51.3326C45.5572 49.7995 46.7958 48.5608 48.329 48.5608H49.0219C51.6984 48.5608 53.8725 46.3867 53.8725 43.7102V43.0173H48.329C45.2714 43.0173 42.7854 40.5314 42.7854 37.4738V31.9302C42.7854 28.8726 45.2714 26.3867 48.329 26.3867H53.8725C56.9301 26.3867 59.416 28.8726 59.416 31.9302V34.702V37.4738V43.7102ZM37.2419 43.7102C37.2419 49.453 32.5905 54.1044 26.8478 54.1044H26.1549C24.6217 54.1044 23.3831 52.8657 23.3831 51.3326C23.3831 49.7995 24.6217 48.5608 26.1549 48.5608H26.8478C29.5243 48.5608 31.6984 46.3867 31.6984 43.7102V43.0173H26.1549C23.0973 43.0173 20.6113 40.5314 20.6113 37.4738V31.9302C20.6113 28.8726 23.0973 26.3867 26.1549 26.3867H31.6984C34.756 26.3867 37.2419 28.8726 37.2419 31.9302V34.702V37.4738V43.7102Z" fill="white"/>
</svg>
