<svg width="81" height="81" viewBox="0 0 81 81" fill="none" xmlns="http://www.w3.org/2000/svg">
<circle cx="40.0054" cy="40.2456" r="40" fill="white"/>
<path d="M59.4077 43.7102C59.4077 49.453 54.7563 54.1044 49.0136 54.1044H48.3207C46.7875 54.1044 45.5489 52.8657 45.5489 51.3326C45.5489 49.7995 46.7875 48.5608 48.3207 48.5608H49.0136C51.6901 48.5608 53.8642 46.3867 53.8642 43.7102V43.0173H48.3207C45.2631 43.0173 42.7771 40.5314 42.7771 37.4738V31.9302C42.7771 28.8726 45.2631 26.3867 48.3207 26.3867H53.8642C56.9218 26.3867 59.4077 28.8726 59.4077 31.9302V34.702V37.4738V43.7102ZM37.2336 43.7102C37.2336 49.453 32.5822 54.1044 26.8395 54.1044H26.1466C24.6134 54.1044 23.3748 52.8657 23.3748 51.3326C23.3748 49.7995 24.6134 48.5608 26.1466 48.5608H26.8395C29.516 48.5608 31.6901 46.3867 31.6901 43.7102V43.0173H26.1466C23.089 43.0173 20.603 40.5314 20.603 37.4738V31.9302C20.603 28.8726 23.089 26.3867 26.1466 26.3867H31.6901C34.7477 26.3867 37.2336 28.8726 37.2336 31.9302V34.702V37.4738V43.7102Z" fill="#00438B"/>
</svg>
