<svg width="235" height="53" viewBox="0 0 235 53" fill="none" xmlns="http://www.w3.org/2000/svg">
<path d="M87.8407 25.8473C87.8407 27.3833 88.1887 28.7153 88.8847 29.8433C89.5807 30.9473 90.4927 31.7873 91.6207 32.3633C92.7727 32.9393 94.0327 33.2273 95.4007 33.2273C96.6007 33.2273 97.6567 33.0713 98.5687 32.7593C99.4807 32.4473 100.297 32.0393 101.017 31.5353C101.737 31.0313 102.373 30.4913 102.925 29.9153V36.4673C101.917 37.2593 100.813 37.8833 99.6127 38.3393C98.4127 38.7953 96.8887 39.0233 95.0407 39.0233C93.0247 39.0233 91.1647 38.7113 89.4607 38.0873C87.7567 37.4633 86.2927 36.5633 85.0687 35.3873C83.8447 34.2113 82.8967 32.8193 82.2247 31.2113C81.5527 29.6033 81.2167 27.8153 81.2167 25.8473C81.2167 23.8793 81.5527 22.0913 82.2247 20.4833C82.8967 18.8753 83.8447 17.4833 85.0687 16.3073C86.2927 15.1313 87.7567 14.2313 89.4607 13.6073C91.1647 12.9833 93.0247 12.6713 95.0407 12.6713C96.8887 12.6713 98.4127 12.8993 99.6127 13.3553C100.813 13.8113 101.917 14.4353 102.925 15.2273V21.7793C102.373 21.2033 101.737 20.6633 101.017 20.1593C100.297 19.6313 99.4807 19.2233 98.5687 18.9353C97.6567 18.6233 96.6007 18.4673 95.4007 18.4673C94.0327 18.4673 92.7727 18.7553 91.6207 19.3313C90.4927 19.9073 89.5807 20.7473 88.8847 21.8513C88.1887 22.9553 87.8407 24.2873 87.8407 25.8473ZM111.571 33.2633C111.571 33.6953 111.679 34.0673 111.895 34.3793C112.111 34.6673 112.399 34.8953 112.759 35.0633C113.119 35.2073 113.515 35.2793 113.947 35.2793C114.571 35.2793 115.147 35.1473 115.675 34.8833C116.203 34.6193 116.635 34.2233 116.971 33.6953C117.307 33.1673 117.475 32.5193 117.475 31.7513L118.051 33.9113C118.051 34.9673 117.763 35.8673 117.187 36.6113C116.611 37.3313 115.867 37.8833 114.955 38.2673C114.043 38.6273 113.059 38.8073 112.003 38.8073C110.947 38.8073 109.963 38.6153 109.051 38.2313C108.163 37.8233 107.443 37.2233 106.891 36.4313C106.363 35.6393 106.099 34.6793 106.099 33.5513C106.099 31.9673 106.663 30.7193 107.791 29.8073C108.919 28.8713 110.515 28.4033 112.579 28.4033C113.587 28.4033 114.487 28.4993 115.279 28.6913C116.095 28.8833 116.791 29.1233 117.367 29.4113C117.943 29.6993 118.375 29.9993 118.663 30.3113V32.7233C118.087 32.2913 117.415 31.9673 116.647 31.7513C115.903 31.5113 115.111 31.3913 114.271 31.3913C113.623 31.3913 113.107 31.4633 112.723 31.6073C112.339 31.7513 112.051 31.9673 111.859 32.2553C111.667 32.5193 111.571 32.8553 111.571 33.2633ZM109.159 26.9633L107.323 23.3273C108.259 22.8713 109.387 22.4393 110.707 22.0313C112.027 21.6233 113.467 21.4193 115.027 21.4193C116.491 21.4193 117.799 21.6353 118.951 22.0673C120.103 22.4753 121.015 23.0753 121.687 23.8673C122.359 24.6593 122.695 25.6313 122.695 26.7833V38.4473H117.475V28.0073C117.475 27.5993 117.403 27.2513 117.259 26.9633C117.139 26.6513 116.947 26.3873 116.683 26.1713C116.419 25.9553 116.083 25.7993 115.675 25.7033C115.291 25.6073 114.847 25.5593 114.343 25.5593C113.599 25.5593 112.867 25.6433 112.147 25.8113C111.451 25.9793 110.839 26.1833 110.311 26.4233C109.783 26.6393 109.399 26.8193 109.159 26.9633ZM132.129 21.8873V38.4473H126.765V21.8873H132.129ZM136.917 27.5033C136.629 27.2153 136.317 26.9873 135.981 26.8193C135.669 26.6513 135.273 26.5673 134.793 26.5673C134.265 26.5673 133.797 26.7113 133.389 26.9993C132.981 27.2873 132.669 27.7073 132.453 28.2593C132.237 28.8113 132.129 29.4833 132.129 30.2753L130.833 28.3673C130.833 27.0473 131.085 25.8713 131.589 24.8393C132.117 23.8073 132.801 22.9913 133.641 22.3913C134.481 21.7913 135.357 21.4913 136.269 21.4913C136.869 21.4913 137.445 21.6113 137.997 21.8513C138.549 22.0913 138.969 22.4273 139.257 22.8593L136.917 27.5033ZM139.622 21.8873H150.71V26.3873H139.622V21.8873ZM142.538 16.1273H147.758V38.4473H142.538V16.1273ZM160.047 25.5953L158.535 38.4473H152.127L156.195 11.9873L166.923 27.3593L177.687 11.9873L181.755 38.4473H175.347L173.835 25.5953L166.923 36.1073L160.047 25.5953ZM189.301 33.2633C189.301 33.6953 189.409 34.0673 189.625 34.3793C189.841 34.6673 190.129 34.8953 190.489 35.0633C190.849 35.2073 191.245 35.2793 191.677 35.2793C192.301 35.2793 192.877 35.1473 193.405 34.8833C193.933 34.6193 194.365 34.2233 194.701 33.6953C195.037 33.1673 195.205 32.5193 195.205 31.7513L195.781 33.9113C195.781 34.9673 195.493 35.8673 194.917 36.6113C194.341 37.3313 193.597 37.8833 192.685 38.2673C191.773 38.6273 190.789 38.8073 189.733 38.8073C188.677 38.8073 187.693 38.6153 186.781 38.2313C185.893 37.8233 185.173 37.2233 184.621 36.4313C184.093 35.6393 183.829 34.6793 183.829 33.5513C183.829 31.9673 184.393 30.7193 185.521 29.8073C186.649 28.8713 188.245 28.4033 190.309 28.4033C191.317 28.4033 192.217 28.4993 193.009 28.6913C193.825 28.8833 194.521 29.1233 195.097 29.4113C195.673 29.6993 196.105 29.9993 196.393 30.3113V32.7233C195.817 32.2913 195.145 31.9673 194.377 31.7513C193.633 31.5113 192.841 31.3913 192.001 31.3913C191.353 31.3913 190.837 31.4633 190.453 31.6073C190.069 31.7513 189.781 31.9673 189.589 32.2553C189.397 32.5193 189.301 32.8553 189.301 33.2633ZM186.889 26.9633L185.053 23.3273C185.989 22.8713 187.117 22.4393 188.437 22.0313C189.757 21.6233 191.197 21.4193 192.757 21.4193C194.221 21.4193 195.529 21.6353 196.681 22.0673C197.833 22.4753 198.745 23.0753 199.417 23.8673C200.089 24.6593 200.425 25.6313 200.425 26.7833V38.4473H195.205V28.0073C195.205 27.5993 195.133 27.2513 194.989 26.9633C194.869 26.6513 194.677 26.3873 194.413 26.1713C194.149 25.9553 193.813 25.7993 193.405 25.7033C193.021 25.6073 192.577 25.5593 192.073 25.5593C191.329 25.5593 190.597 25.6433 189.877 25.8113C189.181 25.9793 188.569 26.1833 188.041 26.4233C187.513 26.6393 187.129 26.8193 186.889 26.9633ZM202.552 21.8873H213.64V26.3873H202.552V21.8873ZM205.468 16.1273H210.688V38.4473H205.468V16.1273ZM224.381 38.8073C222.461 38.8073 220.793 38.4593 219.377 37.7633C217.985 37.0433 216.905 36.0353 216.137 34.7393C215.369 33.4433 214.985 31.9193 214.985 30.1673C214.985 28.3913 215.357 26.8553 216.101 25.5593C216.845 24.2633 217.913 23.2673 219.305 22.5713C220.721 21.8753 222.389 21.5273 224.309 21.5273C226.229 21.5273 227.849 21.8633 229.169 22.5353C230.489 23.1833 231.497 24.1313 232.193 25.3793C232.889 26.6273 233.237 28.1393 233.237 29.9153C233.237 30.1793 233.237 30.4433 233.237 30.7073C233.237 30.9473 233.213 31.1513 233.165 31.3193H218.045V28.2953H228.269L226.973 29.9513C227.093 29.7833 227.189 29.5793 227.261 29.3393C227.357 29.0753 227.405 28.8593 227.405 28.6913C227.405 27.9713 227.273 27.3473 227.009 26.8193C226.745 26.2913 226.373 25.8833 225.893 25.5953C225.413 25.3073 224.849 25.1633 224.201 25.1633C223.385 25.1633 222.701 25.3433 222.149 25.7033C221.597 26.0633 221.177 26.6153 220.889 27.3593C220.625 28.0793 220.481 28.9913 220.457 30.0953C220.457 31.1033 220.601 31.9673 220.889 32.6873C221.177 33.4073 221.609 33.9593 222.185 34.3433C222.761 34.7033 223.469 34.8833 224.309 34.8833C225.269 34.8833 226.085 34.7033 226.757 34.3433C227.453 33.9833 228.005 33.4433 228.413 32.7233L233.273 33.9113C232.409 35.5433 231.233 36.7673 229.745 37.5833C228.281 38.3993 226.493 38.8073 224.381 38.8073Z" fill="#333333"/>
<path d="M51.2864 22.1078H48.0326V15.3772C48.0326 8.70325 42.6285 3.27596 35.9831 3.27596C29.3376 3.27596 23.9335 8.70325 23.9335 15.3772V22.1078H20.6797V15.3772C20.6734 6.89625 27.5383 0.00195312 35.9768 0.00195312C44.4153 0.00195312 51.2801 6.89625 51.2801 15.3772V22.1078H51.2864Z" fill="#333333"/>
<path d="M25.6387 27.8874C25.6387 27.8874 32.8296 18.5502 46.3148 19.205C59.8001 19.8598 67.5615 13.1104 67.5615 13.1104C67.5615 13.1104 70.6272 22.9638 60.4082 27.8874C50.1955 32.811 31.7262 23.1401 25.6387 27.8874Z" fill="#00438B"/>
<path d="M33.8704 38.3076C33.8704 38.3076 33.8954 28.2337 51.0545 30.4437C63.6997 32.0744 67.0287 25.5264 67.0287 25.5264C67.0287 25.5264 66.709 38.5405 63.3423 42.7904C57.048 50.7362 38.9234 34.0073 33.8704 38.3076Z" fill="#00438B"/>
<path d="M1.86548 17.6878C1.86548 17.6878 17.6018 12.2542 34.4729 27.2769C48.3722 39.6551 54.2781 45.6176 63.3374 42.7906C63.3374 42.7906 59.8453 52.4111 43.6263 51.9893C25.2066 51.5108 16.8181 18.2922 1.86548 17.6878Z" fill="#333333"/>
<path d="M0.994141 24.4313C0.994141 24.4313 7.44525 23.6254 12.6801 28.4546C17.9087 33.2837 22.7925 47.576 33.4315 49.7923C33.4315 49.7923 21.5763 53.0096 13.376 48.3819C5.18203 43.7542 9.36366 26.0431 0.994141 24.4313Z" fill="#333333"/>
</svg>
