<svg width="40" height="40" viewBox="0 0 40 40" fill="none" xmlns="http://www.w3.org/2000/svg">
<rect x="-0.000244141" width="40" height="40" rx="20" fill="#00438B"/>
<path d="M24.5138 15.0592C26.4755 17.3012 26.4755 20.9382 24.5138 23.1802C24.3101 23.413 23.9823 23.413 23.7787 23.1802C23.575 22.9474 23.575 22.5729 23.7787 22.3401C25.3346 20.5619 25.3346 17.6775 23.7787 15.8993C23.575 15.6665 23.575 15.292 23.7787 15.0592C23.9823 14.8264 24.3101 14.8264 24.5138 15.0592ZM21.6959 18.5596C21.8259 18.7082 21.8989 18.9096 21.8989 19.1197C21.8989 19.3298 21.8259 19.5312 21.6959 19.6798C21.5659 19.8283 21.3897 19.9117 21.2058 19.9117C21.022 19.9117 20.8458 19.8283 20.7158 19.6798C20.5858 19.5312 20.5128 19.3298 20.5128 19.1197C20.5128 18.9096 20.5858 18.7082 20.7158 18.5596C20.8458 18.4111 21.022 18.3276 21.2058 18.3276C21.3897 18.3276 21.5659 18.4111 21.6959 18.5596ZM22.3085 16.7394C22.5122 16.5066 22.8399 16.5066 23.0436 16.7394C24.1937 18.0538 24.1937 20.1856 23.0436 21.5C22.8399 21.7328 22.5122 21.7328 22.3085 21.5C22.1048 21.2672 22.1048 20.8927 22.3085 20.6599C23.0528 19.8093 23.0528 18.4301 22.3085 17.5795C22.1048 17.3467 22.1048 16.9722 22.3085 16.7394ZM22.0037 12.2396C22.382 12.4864 22.5413 13.0149 22.3743 13.4753L21.5167 15.8555C21.3712 16.2598 21.0098 16.5084 20.63 16.4629L19.2563 16.3071C18.6882 18.1221 18.6882 20.1173 19.2563 21.9323L20.6285 21.7748C21.0098 21.731 21.3697 21.9778 21.5152 22.3821L22.3728 24.7624C22.5397 25.2227 22.3805 25.7512 22.0022 25.998L20.287 27.1182C19.9485 27.3404 19.5213 27.2757 19.2456 26.9606C15.4568 22.6306 15.4568 15.6088 19.2456 11.2787C19.5213 10.9637 19.9485 10.8989 20.2885 11.1195L22.0037 12.2396Z" fill="white"/>
</svg>
